<svg xmlns="http://www.w3.org/2000/svg" viewBox="0 0 800 520"><defs><linearGradient id="bg" x1="0" y1="0" x2="1" y2="1"><stop stop-color="#fff2d9"/><stop offset="1" stop-color="#dff4ff"/></linearGradient></defs><rect width="800" height="520" rx="42" fill="url(#bg)"/><circle cx="665" cy="90" r="52" fill="#ffd86b"/><path d="M0 390q170-110 340 0t460-10v140H0z" fill="#96d08a"/><g><circle cx="402" cy="188" r="54" fill="#e9b17f"/><path d="M350 185q15-84 104-54 20 12 22 54-62-45-126 0z" fill="#6c4a34"/><path d="M365 238q38 30 75 0l52 168H315z" fill="#f7e5c8"/><path d="M364 274l-110 64" stroke="#e9b17f" stroke-width="20" stroke-linecap="round"/><path d="M442 274l108 62" stroke="#e9b17f" stroke-width="20" stroke-linecap="round"/><circle cx="384" cy="188" r="5"/><circle cx="422" cy="188" r="5"/><path d="M384 209q20 18 40 0" fill="none" stroke="#7b503c" stroke-width="5" stroke-linecap="round"/></g><g fill="#f2bc8f"><circle cx="246" cy="346" r="38"/><circle cx="560" cy="344" r="38"/><circle cx="166" cy="390" r="32"/></g><g fill="#7468d9"><rect x="216" y="382" width="60" height="82" rx="24"/><rect x="530" y="380" width="60" height="84" rx="24"/></g><rect x="138" y="420" width="56" height="68" rx="22" fill="#f18d78"/><g fill="#fff"><circle cx="120" cy="120" r="12"/><circle cx="170" cy="90" r="8"/><circle cx="610" cy="150" r="10"/></g></svg>