<svg xmlns="http://www.w3.org/2000/svg" viewBox="0 0 800 520"><defs><linearGradient id="sky" x1="0" y1="0" x2="0" y2="1"><stop stop-color="#c8f1ff"/><stop offset="1" stop-color="#fff1d7"/></linearGradient><linearGradient id="sea" x1="0" y1="0" x2="1" y2="1"><stop stop-color="#78d8e8"/><stop offset="1" stop-color="#59b8d0"/></linearGradient></defs><rect width="800" height="520" rx="42" fill="url(#sky)"/><path d="M80 250a320 220 0 0 1 640 0" fill="none" stroke="#ff7f7f" stroke-width="22"/><path d="M104 250a296 196 0 0 1 592 0" fill="none" stroke="#ffc85b" stroke-width="20"/><path d="M128 250a272 172 0 0 1 544 0" fill="none" stroke="#75c86d" stroke-width="18"/><path d="M152 250a248 148 0 0 1 496 0" fill="none" stroke="#7a71da" stroke-width="16"/><rect y="340" width="800" height="180" fill="url(#sea)"/><path d="M196 316h408l-48 116H244z" fill="#a86338"/><rect x="280" y="235" width="240" height="96" rx="18" fill="#c98249"/><path d="M250 242l150-92 150 92z" fill="#8f5a34"/><rect x="372" y="186" width="56" height="70" rx="12" fill="#ffe6b8"/><circle cx="345" cy="286" r="24" fill="#f8d3a7"/><circle cx="455" cy="286" r="24" fill="#f8d3a7"/><circle cx="336" cy="282" r="4"/><circle cx="354" cy="282" r="4"/><circle cx="446" cy="282" r="4"/><circle cx="464" cy="282" r="4"/><path d="M338 294q8 10 16 0M448 294q8 10 16 0" fill="none" stroke="#7a4b36" stroke-width="4" stroke-linecap="round"/><circle cx="400" cy="205" r="18" fill="#f0b98b"/><path d="M384 197q16-20 32 0v-18q-16-22-32 0z" fill="#8b5b3f"/></svg>